{
  "source": "C:\\Users\\Peter\\Desktop\\stuff\\MIUN\\quantitative_research\\video_compression\\videos\\BVI-HD\\BVI-HD_CDVL_videos\\ORIG\\Typing_1920x1080_60fps.mp4",
  "output": "C:\\Users\\Peter\\Desktop\\stuff\\MIUN\\quantitative_research\\video_compression\\compressed_videos\\BVI-HD\\h264\\2\\Typing_1920x1080_60fps_h264.mp4",
  "codec": "h264",
  "ok": "Input #0, mov,mp4,m4a,3gp,3g2,mj2, from 'C:\\Users\\Peter\\Desktop\\stuff\\MIUN\\quantitative_research\\video_compression\\videos\\BVI-HD\\BVI-HD_CDVL_videos\\ORIG\\Typing_1920x1080_60fps.mp4':\n  Metadata:\n    major_brand     : isom\n    minor_version   : 512\n    compatible_brands: isomiso2avc1mp41\n    encoder         : Lavf54.28.101\n  Duration: 00:00:05.00, start: 0.000000, bitrate: 203453 kb/s\n  Stream #0:0[0x1](und): Video: h264 (High 4:4:4 Predictive) (avc1 / 0x31637661), yuv420p(progressive), 1920x1080, 203448 kb/s, 60 fps, 60 tbr, 60 tbn (default)\n    Metadata:\n      handler_name    : VideoHandler\n      vendor_id       : [0][0][0][0]\n[out#0/mp4 @ 000001d2238f1500] Codec AVOption b:a (set bitrate (in bits/s)) has not been used for any stream. The most likely reason is either wrong type (e.g. a video option with no video streams) or that it is a private option of some decoder which was not actually used for any stream.\nStream mapping:\n  Stream #0:0 -> #0:0 (h264 (native) -> h264 (libx264))\nPress [q] to stop, [?] for help\n[libx264 @ 000001d223ec0940] using cpu capabilities: MMX2 SSE2Fast SSSE3 SSE4.2 AVX FMA3 BMI2 AVX2\n[libx264 @ 000001d223ec0940] profile High, level 5.0, 4:2:0, 8-bit\n[libx264 @ 000001d223ec0940] 264 - core 165 r3222 b35605a - H.264/MPEG-4 AVC codec - Copyleft 2003-2025 - http://www.videolan.org/x264.html - options: cabac=1 ref=5 deblock=1:0:0 analyse=0x3:0x113 me=hex subme=8 psy=1 psy_rd=1.00:0.00 mixed_ref=1 me_range=16 chroma_me=1 trellis=2 8x8dct=1 cqm=0 deadzone=21,11 fast_pskip=1 chroma_qp_offset=-2 threads=18 lookahead_threads=3 sliced_threads=0 nr=0 decimate=1 interlaced=0 bluray_compat=0 constrained_intra=0 bframes=3 b_pyramid=2 b_adapt=1 b_bias=0 direct=3 weightb=1 open_gop=0 weightp=2 keyint=250 keyint_min=25 scenecut=40 intra_refresh=0 rc_lookahead=50 rc=cbr mbtree=1 bitrate=2000 ratetol=1.0 qcomp=0.60 qpmin=0 qpmax=69 qpstep=4 vbv_maxrate=2000 vbv_bufsize=2000 nal_hrd=none filler=0 ip_ratio=1.40 aq=1:1.00\nOutput #0, mp4, to 'C:\\Users\\Peter\\Desktop\\stuff\\MIUN\\quantitative_research\\video_compression\\compressed_videos\\BVI-HD\\h264\\2\\Typing_1920x1080_60fps_h264.mp4':\n  Metadata:\n    major_brand     : isom\n    minor_version   : 512\n    compatible_brands: isomiso2avc1mp41\n    encoder         : Lavf62.3.100\n  Stream #0:0(und): Video: h264 (avc1 / 0x31637661), yuv420p(tv, progressive), 1920x1080, q=2-31, 2000 kb/s, 60 fps, 15360 tbn (default)\n    Metadata:\n      encoder         : Lavc62.11.100 libx264\n      handler_name    : VideoHandler\n      vendor_id       : [0][0][0][0]\n    Side data:\n      cpb: bitrate max/min/avg: 2000000/0/2000000 buffer size: 2000000 vbv_delay: N/A\nframe=    0 fps=0.0 q=0.0 size=       0KiB time=N/A bitrate=N/A speed=N/A elapsed=0:00:00.51    \nframe=    4 fps=3.6 q=42.0 size=       0KiB time=N/A bitrate=N/A speed=N/A elapsed=0:00:01.10    \nframe=   40 fps= 24 q=37.0 size=       0KiB time=00:00:00.50 bitrate=   0.8kbits/s speed=0.296x elapsed=0:00:01.69    \nframe=   70 fps= 30 q=36.0 size=       0KiB time=00:00:01.06 bitrate=   0.4kbits/s speed=0.465x elapsed=0:00:02.29    \nframe=  106 fps= 37 q=36.0 size=     256KiB time=00:00:01.70 bitrate=1233.8kbits/s speed=0.585x elapsed=0:00:02.90    \nframe=  135 fps= 39 q=35.0 size=     256KiB time=00:00:02.21 bitrate= 946.3kbits/s speed=0.641x elapsed=0:00:03.45    \nframe=  168 fps= 42 q=35.0 size=     256KiB time=00:00:02.76 bitrate= 758.1kbits/s speed=0.693x elapsed=0:00:03.98    \nframe=  204 fps= 45 q=36.0 size=     512KiB time=00:00:03.36 bitrate=1245.9kbits/s speed=0.746x elapsed=0:00:04.51    \nframe=  233 fps= 46 q=36.0 size=     512KiB time=00:00:03.85 bitrate=1089.5kbits/s speed=0.765x elapsed=0:00:05.02    \nframe=  288 fps= 52 q=-1.0 size=     768KiB time=00:00:04.75 bitrate=1324.6kbits/s speed=0.855x elapsed=0:00:05.55    \n[mp4 @ 000001d2238f1640] Starting second pass: moving the moov atom to the beginning of the file\n[out#0/mp4 @ 000001d2238f1500] video:930KiB audio:0KiB subtitle:0KiB other streams:0KiB global headers:0KiB muxing overhead: 0.467562%\nframe=  300 fps= 53 q=-1.0 Lsize=     935KiB time=00:00:04.96 bitrate=1541.9kbits/s speed=0.884x elapsed=0:00:05.61    \n[libx264 @ 000001d223ec0940] frame I:2     Avg QP:31.38  size: 46488\n[libx264 @ 000001d223ec0940] frame P:76    Avg QP:29.87  size:  6022\n[libx264 @ 000001d223ec0940] frame B:222   Avg QP:34.16  size:  1808\n[libx264 @ 000001d223ec0940] consecutive B-frames:  1.3%  0.0%  0.0% 98.7%\n[libx264 @ 000001d223ec0940] mb I  I16..4: 34.0% 62.7%  3.3%\n[libx264 @ 000001d223ec0940] mb P  I16..4:  4.1%  3.1%  0.1%  P16..4: 18.3%  1.0%  1.0%  0.0%  0.0%    skip:72.5%\n[libx264 @ 000001d223ec0940] mb B  I16..4:  0.2%  0.2%  0.0%  B16..8: 12.7%  0.5%  0.1%  direct: 0.3%  skip:86.0%  L0:45.4% L1:53.4% BI: 1.2%\n[libx264 @ 000001d223ec0940] 8x8 transform intra:48.0% inter:95.0%\n[libx264 @ 000001d223ec0940] direct mvs  spatial:95.5% temporal:4.5%\n[libx264 @ 000001d223ec0940] coded y,uvDC,uvAC intra: 22.0% 38.0% 5.4% inter: 1.1% 2.0% 0.0%\n[libx264 @ 000001d223ec0940] i16 v,h,dc,p: 13% 35%  8% 44%\n[libx264 @ 000001d223ec0940] i8 v,h,dc,ddl,ddr,vr,hd,vl,hu:  6% 16% 19%  6% 13%  7% 14%  6% 13%\n[libx264 @ 000001d223ec0940] i4 v,h,dc,ddl,ddr,vr,hd,vl,hu:  6% 14%  6%  6% 24% 11% 14%  6% 13%\n[libx264 @ 000001d223ec0940] i8c dc,h,v,p: 64% 26%  7%  4%\n[libx264 @ 000001d223ec0940] Weighted P-Frames: Y:0.0% UV:0.0%\n[libx264 @ 000001d223ec0940] ref P L0: 43.2% 12.1% 17.7% 10.5% 16.5%\n[libx264 @ 000001d223ec0940] ref B L0: 75.2% 13.3%  8.5%  3.1%\n[libx264 @ 000001d223ec0940] ref B L1: 92.0%  8.0%\n[libx264 @ 000001d223ec0940] kb/s:1523.28\n",
  "seconds": 5.83404803276062,
  "probe_out": {}
}